#Comment line ignore any data following # character 
#Hierarchical Translation and Rotation (.htr) file 
[Header]	
#Header keywords are followed by a single value 
FileType HTR		#Single word string
DataType HTRS		#Translation followed by rotation and scale data
FileVersion 1		#integer
NumSegments 84		#integer
NumFrames 2		#integer
DataFrameRate 30		#integer, data frame rate in this file
EulerRotationOrder ZYX
CalibrationUnits mm
RotationUnits Degrees
GlobalAxisofGravity Y
BoneLengthAxis Y
ScaleFactor 1.00
[SegmentNames&Hierarchy]
#CHILD	PARENT
MASTER GLOBAL
root MASTER
chest root
L_mid_tent01 root
R_mid_tent01 root
spine01 root
Bip01_Neck chest
L_humerus chest
R_humerus chest
weapon_bone chest
Bip01_Head Bip01_Neck
eye_left_bone Bip01_Head
eye_right_bone Bip01_Head
L_forearm L_humerus
L_front_hand L_forearm
L_weapon_bone L_forearm
L_front_hand01_01 L_front_hand
L_front_hand02_01 L_front_hand
L_front_hand03_01 L_front_hand
L_front_hand01_02 L_front_hand01_01
L_front_hand02_02 L_front_hand02_01
L_front_hand03_02 L_front_hand03_01
R_forearm R_humerus
R_front_hand R_forearm
R_weapon_bone R_forearm
R_front_hand01_01 R_front_hand
R_front_hand02_01 R_front_hand
R_front_hand03_01 R_front_hand
R_front_hand01_02 R_front_hand01_01
R_front_hand02_02 R_front_hand02_01
R_front_hand03_02 R_front_hand03_01
null_rope01_connect L_mid_tent01
Rope1_Seg01 null_rope01_connect
Rope1_Seg02 Rope1_Seg01
Rope1_Seg03 Rope1_Seg02
Rope1_Seg04 Rope1_Seg03
Rope1_Seg05 Rope1_Seg04
Rope1_Seg06 Rope1_Seg05
Rope1_Seg07 Rope1_Seg06
Rope1_Seg09 Rope1_Seg07
L_mid_hand01 Rope1_Seg09
L_mid_hand02 Rope1_Seg09
L_mid_hand03 Rope1_Seg09
null_rope02_connect R_mid_tent01
Rope2_Seg01 null_rope02_connect
Rope2_Seg02 Rope2_Seg01
Rope2_Seg03 Rope2_Seg02
Rope2_Seg04 Rope2_Seg03
Rope2_Seg05 Rope2_Seg04
Rope2_Seg06 Rope2_Seg05
Rope2_Seg07 Rope2_Seg06
Rope2_Seg09 Rope2_Seg07
R_mid_hand01 Rope2_Seg09
R_mid_hand02 Rope2_Seg09
R_mid_hand03 Rope2_Seg09
spine02 spine01
spine03 spine02
pelvis spine03
null_rope03_connect pelvis
null_rope04_connect pelvis
Rope3_Seg01 null_rope03_connect
Rope3_Seg02 Rope3_Seg01
Rope3_Seg03 Rope3_Seg02
Rope3_Seg04 Rope3_Seg03
Rope3_Seg05 Rope3_Seg04
Rope3_Seg06 Rope3_Seg05
Rope3_Seg07 Rope3_Seg06
Rope3_Seg08 Rope3_Seg07
Rope3_Seg09 Rope3_Seg08
R_rear_hand01 Rope3_Seg09
R_rear_hand02 Rope3_Seg09
R_rear_hand03 Rope3_Seg09
Rope4_Seg01 null_rope04_connect
Rope4_Seg02 Rope4_Seg01
Rope4_Seg03 Rope4_Seg02
Rope4_Seg04 Rope4_Seg03
Rope4_Seg05 Rope4_Seg04
Rope4_Seg06 Rope4_Seg05
Rope4_Seg07 Rope4_Seg06
Rope4_Seg08 Rope4_Seg07
Rope4_Seg09 Rope4_Seg08
L_rear_hand01 Rope4_Seg09
L_rear_hand02 Rope4_Seg09
L_rear_hand03 Rope4_Seg09
[BasePosition]
#SegmentName Tx, Ty, Tz, Rx, Ry, Rz, BoneLength
MASTER 0.000000 0.000000 0.000000 -90.000000 0.000000 0.000000 10.000000 
root 0.000000 0.000000 0.000000 0.000000 0.000000 0.000000 10.000000 
chest 0.000000 0.000000 0.000000 0.000000 0.000000 0.000000 10.000000 
L_mid_tent01 0.000000 0.000000 0.000000 0.000000 0.000000 0.000000 10.000000 
R_mid_tent01 0.000000 0.000000 0.000000 0.000000 0.000000 0.000000 10.000000 
spine01 0.000000 0.000000 0.000000 0.000000 0.000000 0.000000 10.000000 
Bip01_Neck 0.000000 0.000000 0.000000 0.000000 0.000000 0.000000 10.000000 
L_humerus 0.000000 0.000000 0.000000 0.000000 0.000000 0.000000 10.000000 
R_humerus 0.000000 0.000000 0.000000 0.000000 0.000000 0.000000 10.000000 
weapon_bone 0.000000 0.000000 0.000000 0.000000 0.000000 0.000000 10.000000 
Bip01_Head 0.000000 0.000000 0.000000 0.000000 0.000000 0.000000 10.000000 
eye_left_bone 0.000000 0.000000 0.000000 0.000000 0.000000 0.000000 10.000000 
eye_right_bone 0.000000 0.000000 0.000000 0.000000 0.000000 0.000000 10.000000 
L_forearm 0.000000 0.000000 0.000000 0.000000 0.000000 0.000000 10.000000 
L_front_hand 0.000000 0.000000 0.000000 0.000000 0.000000 0.000000 10.000000 
L_weapon_bone 0.000000 0.000000 0.000000 0.000000 0.000000 0.000000 10.000000 
L_front_hand01_01 0.000000 0.000000 0.000000 0.000000 0.000000 0.000000 10.000000 
L_front_hand02_01 0.000000 0.000000 0.000000 0.000000 0.000000 0.000000 10.000000 
L_front_hand03_01 0.000000 0.000000 0.000000 0.000000 0.000000 0.000000 10.000000 
L_front_hand01_02 0.000000 0.000000 0.000000 0.000000 0.000000 0.000000 10.000000 
L_front_hand02_02 0.000000 0.000000 0.000000 0.000000 0.000000 0.000000 10.000000 
L_front_hand03_02 0.000000 0.000000 0.000000 0.000000 0.000000 0.000000 10.000000 
R_forearm 0.000000 0.000000 0.000000 0.000000 0.000000 0.000000 10.000000 
R_front_hand 0.000000 0.000000 0.000000 0.000000 0.000000 0.000000 10.000000 
R_weapon_bone 0.000000 0.000000 0.000000 0.000000 0.000000 0.000000 10.000000 
R_front_hand01_01 0.000000 0.000000 0.000000 0.000000 0.000000 0.000000 10.000000 
R_front_hand02_01 0.000000 0.000000 0.000000 0.000000 0.000000 0.000000 10.000000 
R_front_hand03_01 0.000000 0.000000 0.000000 0.000000 0.000000 0.000000 10.000000 
R_front_hand01_02 0.000000 0.000000 0.000000 0.000000 0.000000 0.000000 10.000000 
R_front_hand02_02 0.000000 0.000000 0.000000 0.000000 0.000000 0.000000 10.000000 
R_front_hand03_02 0.000000 0.000000 0.000000 0.000000 0.000000 0.000000 10.000000 
null_rope01_connect 0.000000 0.000000 0.000000 0.000000 0.000000 0.000000 10.000000 
Rope1_Seg01 0.000000 0.000000 0.000000 0.000000 0.000000 0.000000 10.000000 
Rope1_Seg02 0.000000 0.000000 0.000000 0.000000 0.000000 0.000000 10.000000 
Rope1_Seg03 0.000000 0.000000 0.000000 0.000000 0.000000 0.000000 10.000000 
Rope1_Seg04 0.000000 0.000000 0.000000 0.000000 0.000000 0.000000 10.000000 
Rope1_Seg05 0.000000 0.000000 0.000000 0.000000 0.000000 0.000000 10.000000 
Rope1_Seg06 0.000000 0.000000 0.000000 0.000000 0.000000 0.000000 10.000000 
Rope1_Seg07 0.000000 0.000000 0.000000 0.000000 0.000000 0.000000 10.000000 
Rope1_Seg09 0.000000 0.000000 0.000000 0.000000 0.000000 0.000000 10.000000 
L_mid_hand01 0.000000 0.000000 0.000000 0.000000 0.000000 0.000000 10.000000 
L_mid_hand02 0.000000 0.000000 0.000000 0.000000 0.000000 0.000000 10.000000 
L_mid_hand03 0.000000 0.000000 0.000000 0.000000 0.000000 0.000000 10.000000 
null_rope02_connect 0.000000 0.000000 0.000000 0.000000 0.000000 0.000000 10.000000 
Rope2_Seg01 0.000000 0.000000 0.000000 0.000000 0.000000 0.000000 10.000000 
Rope2_Seg02 0.000000 0.000000 0.000000 0.000000 0.000000 0.000000 10.000000 
Rope2_Seg03 0.000000 0.000000 0.000000 0.000000 0.000000 0.000000 10.000000 
Rope2_Seg04 0.000000 0.000000 0.000000 0.000000 0.000000 0.000000 10.000000 
Rope2_Seg05 0.000000 0.000000 0.000000 0.000000 0.000000 0.000000 10.000000 
Rope2_Seg06 0.000000 0.000000 0.000000 0.000000 0.000000 0.000000 10.000000 
Rope2_Seg07 0.000000 0.000000 0.000000 0.000000 0.000000 0.000000 10.000000 
Rope2_Seg09 0.000000 0.000000 0.000000 0.000000 0.000000 0.000000 10.000000 
R_mid_hand01 0.000000 0.000000 0.000000 0.000000 0.000000 0.000000 10.000000 
R_mid_hand02 0.000000 0.000000 0.000000 0.000000 0.000000 0.000000 10.000000 
R_mid_hand03 0.000000 0.000000 0.000000 0.000000 0.000000 0.000000 10.000000 
spine02 0.000000 0.000000 0.000000 0.000000 0.000000 0.000000 10.000000 
spine03 0.000000 0.000000 0.000000 0.000000 0.000000 0.000000 10.000000 
pelvis 0.000000 0.000000 0.000000 0.000000 0.000000 0.000000 10.000000 
null_rope03_connect 0.000000 0.000000 0.000000 0.000000 0.000000 0.000000 10.000000 
null_rope04_connect 0.000000 0.000000 0.000000 0.000000 0.000000 0.000000 10.000000 
Rope3_Seg01 0.000000 0.000000 0.000000 0.000000 0.000000 0.000000 10.000000 
Rope3_Seg02 0.000000 0.000000 0.000000 0.000000 0.000000 0.000000 10.000000 
Rope3_Seg03 0.000000 0.000000 0.000000 0.000000 0.000000 0.000000 10.000000 
Rope3_Seg04 0.000000 0.000000 0.000000 0.000000 0.000000 0.000000 10.000000 
Rope3_Seg05 0.000000 0.000000 0.000000 0.000000 0.000000 0.000000 10.000000 
Rope3_Seg06 0.000000 0.000000 0.000000 0.000000 0.000000 0.000000 10.000000 
Rope3_Seg07 0.000000 0.000000 0.000000 0.000000 0.000000 0.000000 10.000000 
Rope3_Seg08 0.000000 0.000000 0.000000 0.000000 0.000000 0.000000 10.000000 
Rope3_Seg09 0.000000 0.000000 0.000000 0.000000 0.000000 0.000000 10.000000 
R_rear_hand01 0.000000 0.000000 0.000000 0.000000 0.000000 0.000000 10.000000 
R_rear_hand02 0.000000 0.000000 0.000000 0.000000 0.000000 0.000000 10.000000 
R_rear_hand03 0.000000 0.000000 0.000000 0.000000 0.000000 0.000000 10.000000 
Rope4_Seg01 0.000000 0.000000 0.000000 0.000000 0.000000 0.000000 10.000000 
Rope4_Seg02 0.000000 0.000000 0.000000 0.000000 0.000000 0.000000 10.000000 
Rope4_Seg03 0.000000 0.000000 0.000000 0.000000 0.000000 0.000000 10.000000 
Rope4_Seg04 0.000000 0.000000 0.000000 0.000000 0.000000 0.000000 10.000000 
Rope4_Seg05 0.000000 0.000000 0.000000 0.000000 0.000000 0.000000 10.000000 
Rope4_Seg06 0.000000 0.000000 0.000000 0.000000 0.000000 0.000000 10.000000 
Rope4_Seg07 0.000000 0.000000 0.000000 0.000000 0.000000 0.000000 10.000000 
Rope4_Seg08 0.000000 0.000000 0.000000 0.000000 0.000000 0.000000 10.000000 
Rope4_Seg09 0.000000 0.000000 0.000000 0.000000 0.000000 0.000000 10.000000 
L_rear_hand01 0.000000 0.000000 0.000000 0.000000 0.000000 0.000000 10.000000 
L_rear_hand02 0.000000 0.000000 0.000000 0.000000 0.000000 0.000000 10.000000 
L_rear_hand03 0.000000 0.000000 0.000000 0.000000 0.000000 0.000000 10.000000 
#Beginning of Data. Separated by tabs
#Fr	Tx	Ty	Tz	Rx	Ry	Rz	SF
[MASTER]
9 1556.140747 1785.905884 -924.195557 0.001660 0.001660 0.001660 2542.670166
10 1617.381470 2007.101563 -1055.488525 0.001660 0.001660 0.001660 2785.396729
[root]
9 11.801541 -111.081596 897.524353 -145.304306 -10.727100 -84.943741 904.449219
10 -4.712219 -85.672150 1004.091614 -132.704376 -14.539702 -86.319756 1007.750854
[chest]
9 -84.512650 -34.090519 0.000000 -50.862682 -20.254536 -174.877777 91.129311
10 -84.512650 -34.090519 0.000000 -44.035904 -16.914328 -178.284683 91.129311
[L_mid_tent01]
9 27.298975 22.179213 -249.918823 -7.038331 33.973782 51.588894 252.381790
10 27.298967 22.179203 -249.918823 -8.764915 41.968784 49.126781 252.381790
[R_mid_tent01]
9 23.228794 24.509907 226.238495 163.759048 26.213745 59.490551 228.744751
10 23.228794 24.509907 226.238495 165.377716 17.660465 59.939495 228.744751
[spine01]
9 -0.361383 -0.195265 0.000000 -0.000001 -0.000007 22.052340 0.410763
10 -0.361383 -0.195265 0.000000 -0.000001 -0.000007 22.052340 0.410763
[Bip01_Neck]
9 165.484543 71.581718 0.000119 176.643677 -1.657967 43.431911 180.302734
10 165.484543 71.581718 0.000119 176.643677 -1.657967 43.431911 180.302734
[L_humerus]
9 -13.983130 -135.272980 -120.471481 156.643448 66.936348 -111.444046 181.680161
10 -13.983130 -135.272980 -120.471481 156.983749 66.794907 -111.109779 181.680161
[R_humerus]
9 -13.983309 -135.273102 125.287651 -140.302170 -68.299294 -123.127907 184.909012
10 -13.983309 -135.273102 125.287651 -147.208221 -67.508118 -116.519547 184.909012
[weapon_bone]
9 235.964890 -300.705902 0.000000 0.000000 -89.951546 -128.212341 382.234833
10 235.964890 -300.705902 0.000000 0.000000 -89.951546 -128.212341 382.234833
[Bip01_Head]
9 213.390961 185.864136 9.859049 15.452621 6.148750 -43.834110 283.157867
10 213.403473 185.829346 10.308252 16.583063 6.148129 -43.832047 283.160461
[eye_left_bone]
9 -24.626970 125.451866 -64.772606 0.000000 -90.000000 -99.840431 143.318359
10 -24.626970 125.451866 -64.772606 0.000000 -90.000000 -99.840431 143.318359
[eye_right_bone]
9 -24.626970 125.451866 64.327362 0.000000 -89.965736 80.156380 143.117676
10 -24.626970 125.451866 64.327362 0.000000 -89.965736 80.156380 143.117676
[L_forearm]
9 322.776093 0.000000 -0.000119 0.000325 -0.002325 -105.909485 322.776093
10 322.776093 0.000000 -0.000119 0.000332 -0.002324 -106.253380 322.776093
[L_front_hand]
9 241.149185 -0.042021 -3.300071 -105.490540 -1.835781 -27.423635 241.171753
10 241.149185 -0.042021 -3.300071 -105.490540 -1.835781 -27.423635 241.171753
[L_weapon_bone]
9 156.183838 0.000000 0.000000 0.000014 0.000007 0.000001 156.183838
10 156.183838 0.000000 0.000000 0.000014 0.000007 0.000001 156.183838
[L_front_hand01_01]
9 86.095154 20.947098 -0.655860 -0.366594 -0.477154 75.385574 88.609184
10 86.095154 20.947098 -0.655860 -0.366594 -0.477154 75.385582 88.609184
[L_front_hand02_01]
9 86.935165 -11.437475 24.513514 154.399796 -59.883835 -61.369587 91.046425
10 86.935165 -11.437475 24.513514 154.399796 -59.883835 -61.369587 91.046425
[L_front_hand03_01]
9 86.637497 -14.123976 -20.424902 -153.913849 58.118130 -62.702866 90.126129
10 86.637497 -14.123976 -20.424902 -153.913849 58.118122 -62.702866 90.126129
[L_front_hand01_02]
9 71.020905 -0.000179 0.000030 0.000334 -0.002323 -106.379684 71.020905
10 71.020905 -0.000179 0.000030 0.000334 -0.002323 -106.379684 71.020905
[L_front_hand02_02]
9 71.020927 -0.000119 0.000060 0.000334 -0.002323 -106.379684 71.020927
10 71.020927 -0.000119 0.000060 0.000334 -0.002323 -106.379684 71.020927
[L_front_hand03_02]
9 71.020905 -0.000060 0.000060 0.000334 -0.002323 -106.379684 71.020905
10 71.020905 -0.000060 0.000060 0.000334 -0.002323 -106.379684 71.020905
[R_forearm]
9 322.776428 -0.000060 0.000030 0.208811 0.048928 -104.527336 322.776428
10 322.776428 -0.000060 0.000030 0.207686 0.050312 -104.872810 322.776428
[R_front_hand]
9 238.847015 -0.006795 2.210259 -2.635298 -10.645461 -26.312506 238.857239
10 238.847015 -0.006795 2.210259 -2.635298 -10.645461 -26.312506 238.857239
[R_weapon_bone]
9 155.664093 0.002503 -0.000030 0.003487 0.001180 -90.988930 155.664078
10 155.664093 0.002503 -0.000030 0.003487 0.001180 -90.988930 155.664078
[R_front_hand01_01]
9 87.624611 14.231146 22.918642 -154.633484 -59.950607 61.746033 91.683487
10 87.624611 14.231146 22.918642 -154.633484 -59.950607 61.746037 91.683487
[R_front_hand02_01]
9 89.356956 14.367283 -19.491137 154.602661 58.302856 63.744389 92.579636
10 89.356956 14.367283 -19.491137 154.602676 58.302864 63.744400 92.579636
[R_front_hand03_01]
9 87.286232 -22.307278 -0.143439 0.162155 -0.423168 -75.767921 90.091743
10 87.286232 -22.307278 -0.143439 0.162155 -0.423168 -75.767906 90.091743
[R_front_hand01_02]
9 71.020905 0.000060 0.000119 0.002323 -0.000334 106.381706 71.020905
10 71.020905 0.000060 0.000119 0.002323 -0.000334 106.381706 71.020905
[R_front_hand02_02]
9 71.020844 -0.000030 -0.000119 0.002323 -0.000334 106.381706 71.020836
10 71.020844 -0.000030 -0.000119 0.002323 -0.000334 106.381706 71.020836
[R_front_hand03_02]
9 71.020905 0.000000 0.000030 0.002323 -0.000334 106.381706 71.020905
10 71.020905 0.000000 0.000030 0.002323 -0.000334 106.381706 71.020905
[null_rope01_connect]
9 328.732483 0.000000 -0.000238 -155.169968 -4.927063 -143.989349 328.732483
10 328.732483 0.000000 -0.000238 -147.258423 -9.672529 -148.586884 328.732483
[Rope1_Seg01]
9 -0.000027 -0.000151 0.000000 -41.816982 -36.362545 -171.778473 0.000153
10 -0.000028 -0.000165 0.000000 -34.184601 -29.199776 -173.513565 0.000167
[Rope1_Seg02]
9 139.999863 -0.000179 0.000000 38.640842 3.821205 31.405132 139.999863
10 139.999863 -0.000179 0.000000 19.976965 2.335969 20.282383 139.999863
[Rope1_Seg03]
9 139.999924 0.000060 -0.000060 49.453873 27.732975 26.573984 139.999924
10 139.999924 0.000060 -0.000060 47.612431 20.067572 28.452061 139.999924
[Rope1_Seg04]
9 139.999924 -0.000060 -0.000119 -1.531556 -10.239952 11.065634 139.999924
10 139.999924 -0.000060 -0.000119 20.273006 8.652301 15.023853 139.999924
[Rope1_Seg05]
9 139.999832 0.000119 -0.000060 -4.527636 -7.188625 4.969111 139.999832
10 139.999832 0.000119 -0.000060 6.926450 -3.280389 10.619926 139.999832
[Rope1_Seg06]
9 139.999954 0.000119 -0.000060 -0.745265 -1.955788 1.735836 139.999954
10 139.999954 0.000119 -0.000060 4.525232 0.780548 2.967974 139.999954
[Rope1_Seg07]
9 139.999985 0.000060 0.000000 -0.538913 -1.224909 1.060943 139.999985
10 139.999985 0.000060 0.000000 2.919614 0.621355 1.699657 139.999985
[Rope1_Seg09]
9 121.602913 0.000119 -0.000089 -89.793175 -1.359789 0.847147 121.602913
10 121.602913 0.000119 -0.000089 -89.793175 -1.359789 0.847147 121.602913
[L_mid_hand01]
9 103.859421 1.038730 8.195221 130.544373 -67.584534 -38.866943 104.187431
10 103.859421 1.038730 8.195221 130.544373 -67.584534 -38.866943 104.187431
[L_mid_hand02]
9 105.572853 -4.139662 -10.864139 -168.923172 43.409309 -73.498894 106.211075
10 105.572853 -4.139662 -10.864139 -168.923172 43.409309 -73.498886 106.211075
[L_mid_hand03]
9 104.641464 17.579376 -3.913581 -6.012627 17.808174 74.893669 106.179977
10 104.641464 17.579376 -3.913581 -6.012625 17.808174 74.893669 106.179977
[null_rope02_connect]
9 328.732849 0.000179 -0.000119 8.850593 4.996121 147.777573 328.732849
10 328.732849 0.000179 -0.000119 8.323109 25.389807 145.504211 328.732849
[Rope2_Seg01]
9 0.000000 -0.000018 -0.000044 13.713277 55.389618 -53.296192 0.000048
10 0.000000 -0.000044 -0.000040 33.565105 42.499874 -33.880550 0.000060
[Rope2_Seg02]
9 139.999741 -0.000060 -0.000119 -2.392019 -6.169113 -7.618308 139.999756
10 139.999741 -0.000060 -0.000119 -2.390664 -3.223694 -3.469954 139.999756
[Rope2_Seg03]
9 140.000107 0.000030 0.000000 -4.866721 -10.765464 -14.954457 140.000107
10 140.000107 0.000030 0.000000 -3.976750 -4.782976 -5.624681 140.000107
[Rope2_Seg04]
9 139.999802 0.000000 -0.000060 -8.758574 -17.547005 -30.065792 139.999802
10 139.999802 0.000000 -0.000060 -7.356934 -7.533892 -10.381544 139.999802
[Rope2_Seg05]
9 139.999985 -0.000060 0.000119 -7.681620 -9.450113 -27.701756 139.999985
10 139.999985 -0.000060 0.000119 -15.121993 -13.743839 -24.199686 139.999985
[Rope2_Seg06]
9 139.999893 -0.000030 -0.000119 -1.424151 1.912894 -6.456381 139.999893
10 139.999893 -0.000030 -0.000119 -13.947504 -7.133715 -32.252186 139.999893
[Rope2_Seg07]
9 139.999893 0.000060 -0.000060 0.842761 5.903236 2.382764 139.999893
10 139.999893 0.000060 -0.000060 -2.576596 3.543125 -9.641286 139.999893
[Rope2_Seg09]
9 121.338966 0.000089 -0.000060 33.793236 -1.359788 -0.847141 121.338966
10 121.338966 0.000089 -0.000060 33.793236 -1.359788 -0.847141 121.338966
[R_mid_hand01]
9 104.680779 11.144459 -10.335981 -16.212063 45.237247 70.462852 105.778534
10 104.680779 11.144459 -10.335981 -16.212063 45.237240 70.462845 105.778534
[R_mid_hand02]
9 104.070427 2.443552 8.231699 49.067368 -67.749771 39.286453 104.424065
10 104.070427 2.443552 8.231699 49.067368 -67.749771 39.286453 104.424065
[R_mid_hand03]
9 106.028137 -11.221827 -5.996406 -177.101105 15.551026 -76.585571 106.788818
10 106.028137 -11.221827 -5.996406 -177.101105 15.551026 -76.585571 106.788818
[spine02]
9 129.756927 0.001550 0.000119 0.000378 -4.060892 -7.833599 129.756927
10 129.756927 0.001550 0.000119 0.036582 -4.061176 -8.340929 129.756927
[spine03]
9 78.614120 0.081260 -4.899074 1.681097 3.929615 13.312945 78.766670
10 78.614128 0.081297 -4.899079 1.702493 3.921333 13.622666 78.766678
[pelvis]
9 169.435242 0.051022 0.000000 -0.040663 -0.187278 7.686741 169.435257
10 169.435242 0.051022 0.000000 -0.041585 -0.185405 8.324664 169.435257
[null_rope03_connect]
9 -1.257226 -2.466202 137.391083 -172.693848 -36.244640 -119.346489 137.418976
10 -1.257226 -2.466202 137.391083 -169.284409 -48.894524 -120.573975 137.418976
[null_rope04_connect]
9 -1.259640 -2.480268 -137.844437 -172.693848 -36.244640 -119.346489 137.872513
10 -1.259640 -2.480268 -137.844437 -169.284409 -48.894524 -120.573975 137.872513
[Rope3_Seg01]
9 0.000000 0.000000 0.000000 18.287878 -30.018480 -76.031532 0.000000
10 0.000000 0.000000 0.000000 17.373682 -31.926996 -73.784134 0.000000
[Rope3_Seg02]
9 139.999924 -0.000119 0.000060 -2.634309 12.193999 -8.690280 139.999924
10 139.999924 -0.000119 0.000060 -1.447351 10.596782 -5.752833 139.999924
[Rope3_Seg03]
9 139.999924 -0.000119 0.000119 0.906070 22.313000 3.306267 139.999924
10 139.999924 -0.000119 0.000119 1.998071 19.208302 6.417931 139.999924
[Rope3_Seg04]
9 139.999924 0.000119 0.000000 0.652744 -5.356749 -12.904219 139.999924
10 139.999924 0.000119 0.000000 0.666973 0.544937 -8.137901 139.999924
[Rope3_Seg05]
9 139.999924 -0.000238 0.000060 19.630907 -32.355381 -38.008480 139.999924
10 139.999924 -0.000238 0.000060 14.913699 -29.550291 -44.258152 139.999924
[Rope3_Seg06]
9 139.999893 -0.000119 -0.000060 13.492565 -12.890835 -10.036740 139.999893
10 139.999893 -0.000119 -0.000060 9.074180 -14.068942 -16.275303 139.999893
[Rope3_Seg07]
9 139.999771 0.000060 -0.000119 10.494610 -5.750680 -2.904043 139.999771
10 139.999771 0.000060 -0.000119 5.751676 -4.957629 -4.704598 139.999771
[Rope3_Seg08]
9 139.999985 -0.000060 0.000000 8.292836 -3.193593 -0.939287 139.999985
10 139.999985 -0.000060 0.000000 5.045304 -2.703435 -2.103260 139.999985
[Rope3_Seg09]
9 90.185997 -0.000179 -0.000060 89.793228 -1.359877 -0.847183 90.185997
10 90.185997 -0.000179 -0.000060 89.793228 -1.359877 -0.847183 90.185997
[R_rear_hand01]
9 103.366196 -6.073594 -10.757982 172.856537 -15.220667 -75.434441 104.101845
10 103.366196 -6.073594 -10.757982 172.856537 -15.220671 -75.434441 104.101845
[R_rear_hand02]
9 100.509819 12.039542 -7.992327 -12.874827 36.868492 72.167221 101.543350
10 100.509819 12.039542 -7.992327 -12.874827 36.868492 72.167221 101.543350
[R_rear_hand03]
9 101.539970 5.215704 5.435467 71.484566 -71.816597 21.513792 101.819031
10 101.539970 5.215704 5.435467 71.484619 -71.816643 21.513803 101.819031
[Rope4_Seg01]
9 -0.000108 -0.000022 -0.000072 -153.813889 -58.099449 -51.137329 0.000132
10 -0.000112 -0.000020 -0.000072 -104.178749 -60.199677 -105.163666 0.000135
[Rope4_Seg02]
9 139.999985 0.000060 0.000119 12.755302 9.930199 28.245174 139.999985
10 139.999985 0.000060 0.000119 2.224370 -0.047235 14.513330 139.999985
[Rope4_Seg03]
9 139.999924 0.000000 -0.000238 4.767787 12.715387 29.678801 139.999924
10 139.999924 0.000000 -0.000238 0.837296 -4.896613 8.418801 139.999924
[Rope4_Seg04]
9 139.999985 0.000000 0.000119 0.178330 9.891215 6.459052 139.999985
10 139.999985 0.000000 0.000119 1.069996 8.360532 12.452044 139.999985
[Rope4_Seg05]
9 139.999802 -0.000060 -0.000119 1.877811 4.723376 -3.015318 139.999802
10 139.999802 -0.000060 -0.000119 0.126933 10.080621 8.122327 139.999802
[Rope4_Seg06]
9 139.999924 0.000000 0.000060 0.559707 2.257298 -0.046660 139.999924
10 139.999924 0.000000 0.000060 -0.402771 3.323742 3.290610 139.999924
[Rope4_Seg07]
9 139.999802 0.000000 0.000000 0.417929 1.485197 0.061492 139.999802
10 139.999802 0.000000 0.000000 -0.304100 1.971015 2.069101 139.999802
[Rope4_Seg08]
9 139.999924 0.000000 0.000119 -1.269204 0.912078 0.031133 139.999924
10 139.999924 0.000000 0.000119 -1.761257 1.178392 1.249887 139.999924
[Rope4_Seg09]
9 90.185791 0.000060 0.000060 -135.617828 2.228885 0.850567 90.185791
10 90.185791 0.000060 0.000060 -135.617828 2.228885 0.850567 90.185791
[L_rear_hand01]
9 101.696655 -8.392275 -7.654577 -12.874827 -36.868492 107.832764 102.329041
10 101.696655 -8.392275 -7.654577 -12.874827 -36.868492 107.832764 102.329041
[L_rear_hand02]
9 102.726799 -1.568258 5.773216 71.484619 71.816643 158.486160 102.900848
10 102.726799 -1.568258 5.773216 71.484619 71.816643 158.486160 102.900848
[L_rear_hand03]
9 104.552910 9.721220 -10.420293 -177.714203 -24.565960 -106.089035 105.519653
10 104.552910 9.721220 -10.420293 -177.714203 -24.565960 -106.089035 105.519653
